<svg width="24" height="20" viewBox="0 0 24 20" fill="none" xmlns="http://www.w3.org/2000/svg">
<path d="M6.375 18.125H17.625" stroke="#009379" stroke-width="1.66667" stroke-linecap="round" stroke-linejoin="round"/>
<path d="M12 10.625C13.3807 10.625 14.5 9.50571 14.5 8.125C14.5 6.74429 13.3807 5.625 12 5.625C10.6193 5.625 9.5 6.74429 9.5 8.125C9.5 9.50571 10.6193 10.625 12 10.625Z" stroke="#009379" stroke-width="1.66667" stroke-linecap="round" stroke-linejoin="round"/>
<path d="M18.25 8.125C18.25 13.75 12 18.125 12 18.125C12 18.125 5.75 13.75 5.75 8.125C5.75 6.4674 6.40848 4.87769 7.58058 3.70558C8.75269 2.53348 10.3424 1.875 12 1.875C13.6576 1.875 15.2473 2.53348 16.4194 3.70558C17.5915 4.87769 18.25 6.4674 18.25 8.125V8.125Z" stroke="#009379" stroke-width="1.66667" stroke-linecap="round" stroke-linejoin="round"/>
</svg>
