<svg width="24" height="20" viewBox="0 0 24 20" fill="none" xmlns="http://www.w3.org/2000/svg">
<path d="M9.22656 9.75015C9.8697 11.0783 10.9437 12.1495 12.2734 12.7892C12.3715 12.8357 12.48 12.8558 12.5882 12.8475C12.6965 12.8393 12.8007 12.8031 12.8906 12.7423L14.8437 11.4376C14.93 11.3791 15.0298 11.3434 15.1336 11.3338C15.2374 11.3243 15.342 11.3412 15.4375 11.383L19.0937 12.9533C19.2187 13.0053 19.3231 13.0969 19.3909 13.2141C19.4586 13.3313 19.486 13.4675 19.4687 13.6017C19.3529 14.5062 18.9114 15.3375 18.2269 15.94C17.5424 16.5425 16.6619 16.8749 15.75 16.8751C12.9321 16.8751 10.2296 15.7557 8.23699 13.7632C6.24442 11.7706 5.125 9.06807 5.125 6.25015C5.12521 5.33827 5.45767 4.45771 6.06018 3.77324C6.66268 3.08877 7.49395 2.64728 8.39844 2.5314C8.53269 2.51415 8.66888 2.54152 8.78605 2.60928C8.90322 2.67704 8.99486 2.78144 9.04687 2.9064L10.6172 6.57046C10.658 6.66448 10.6751 6.7671 10.6669 6.86928C10.6588 6.97146 10.6256 7.07006 10.5703 7.1564L9.26562 9.14077C9.20754 9.23052 9.17345 9.33368 9.16661 9.44037C9.15977 9.54705 9.18041 9.65371 9.22656 9.75015V9.75015Z" stroke="#009379" stroke-width="1.66667" stroke-linecap="round" stroke-linejoin="round"/>
</svg>
