<svg width="42" height="42" viewBox="0 0 42 42" fill="none" xmlns="http://www.w3.org/2000/svg">
<path d="M40.8333 18.375H38.6822C38.0405 16.7344 37.1071 15.2824 35.955 14.0684L37.3331 7.875H34.9997C32.8559 7.875 30.96 8.98242 29.6766 10.6887C29.1224 10.5984 28.5755 10.5 27.9995 10.5H18.6658C13.0218 10.5 8.31847 15.0117 7.23197 21H4.08185C3.00264 21 2.14948 19.8926 2.36824 18.6375C2.52866 17.7023 3.3089 17.0625 4.15477 17.0625H4.22769C4.46832 17.0625 4.66521 16.841 4.66521 16.5703V14.9297C4.66521 14.659 4.46832 14.4375 4.22769 14.4375C2.14948 14.4375 0.297326 16.1109 0.0348159 18.4242C-0.28603 21.2297 1.65363 23.625 4.08185 23.625H6.99863C6.99863 27.907 8.85079 31.6723 11.6655 34.0676V40.6875C11.6655 41.4094 12.1905 42 12.8322 42H17.499C18.1407 42 18.6658 41.4094 18.6658 40.6875V36.75H27.9995V40.6875C27.9995 41.4094 28.5245 42 29.1662 42H33.833C34.4747 42 34.9997 41.4094 34.9997 40.6875V34.0676C35.8602 33.3375 36.6258 32.4762 37.2821 31.5H40.8333C41.475 31.5 42 30.9094 42 30.1875V19.6875C42 18.9656 41.475 18.375 40.8333 18.375ZM31.4996 23.625C30.8579 23.625 30.3329 23.0344 30.3329 22.3125C30.3329 21.5906 30.8579 21 31.4996 21C32.1413 21 32.6663 21.5906 32.6663 22.3125C32.6663 23.0344 32.1413 23.625 31.4996 23.625ZM18.6658 7.875H27.9995C28.3932 7.875 28.7797 7.90781 29.1589 7.94063C29.1589 7.91602 29.1662 7.89961 29.1662 7.875C29.1662 3.52734 26.0306 0 22.1659 0C18.3012 0 15.1656 3.52734 15.1656 7.875C15.1656 8.04727 15.2021 8.21133 15.2094 8.38359C16.3177 8.06367 17.4699 7.875 18.6658 7.875Z" fill="#009379"/>
</svg>
