<svg width="42" height="42" viewBox="0 0 42 42" fill="none" xmlns="http://www.w3.org/2000/svg">
<g clip-path="url(#clip0_568_1172)">
<path d="M15.1397 21.4843C15.4049 22.6325 14.1453 23.5051 13.1654 22.8926L9.82379 20.8045L5.65111 27.482C4.5614 29.2256 5.82091 31.5 7.87596 31.5H12.1406C12.6842 31.5 13.125 31.9408 13.125 32.4844V35.7657C13.125 36.3093 12.6842 36.75 12.1406 36.75H7.88441C1.70466 36.75 -2.06615 29.9375 1.20641 24.7013L5.3754 18.0249L2.03468 15.9374C1.04366 15.3183 1.29918 13.8078 2.43491 13.5455L11.4778 11.4578C12.1842 11.2948 12.8888 11.7352 13.0519 12.4414L15.1397 21.4843ZM23.2248 6.47953L26.6118 11.8998L23.2699 13.9881C22.2813 14.6056 22.5316 16.1171 23.6701 16.38L32.713 18.4677C33.4243 18.6316 34.1251 18.1856 34.2871 17.4841L36.3748 8.44122C36.637 7.30558 35.3912 6.41349 34.4004 7.03291L31.0628 9.11847L27.678 3.69768C24.6001 -1.2269 17.4069 -1.23822 14.322 3.69768L12.8484 6.05739C12.5605 6.51841 12.7008 7.12552 13.1618 7.41362L15.9442 9.15227C16.4052 9.44036 17.0126 9.30017 17.3007 8.83916L18.7741 6.48133C19.8168 4.81273 22.2172 4.86728 23.2248 6.47953ZM40.7931 24.7013L38.536 21.0866C38.248 20.6253 37.6406 20.485 37.1794 20.7731L34.4017 22.5088C33.9407 22.7969 33.8005 23.4042 34.0885 23.8653L36.3497 27.4839C37.4371 29.2238 36.1809 31.5001 34.1237 31.5001H26.25V27.5642C26.25 26.3983 24.8356 25.8101 24.0095 26.6362L17.447 33.1971C16.9343 33.7096 16.9343 34.5407 17.447 35.0532L24.0095 41.6148C24.8299 42.4355 26.25 41.8606 26.25 40.6866V36.75H34.1151C40.2899 36.75 44.0684 29.9417 40.7931 24.7013Z" fill="#009379"/>
</g>
<defs>
<clipPath id="clip0_568_1172">
<rect width="42" height="42" fill="white"/>
</clipPath>
</defs>
</svg>
