<svg width="32" height="32" viewBox="0 0 32 32" fill="none" xmlns="http://www.w3.org/2000/svg">
<path fill-rule="evenodd" clip-rule="evenodd" d="M0 16C0 24.8366 7.16344 32 16 32C24.8366 32 32 24.8366 32 16C32 7.16344 24.8366 0 16 0C7.16344 0 0 7.16344 0 16Z" fill="#E5F4F2"/>
<path fill-rule="evenodd" clip-rule="evenodd" d="M16.0009 24.5334C13.6834 24.5334 13.3925 24.5233 12.4823 24.4819C11.5739 24.4403 10.9538 24.2965 10.4112 24.0854C9.84993 23.8675 9.37384 23.5759 8.89952 23.1014C8.42485 22.6271 8.13329 22.151 7.91462 21.59C7.70307 21.0472 7.55906 20.4269 7.51818 19.5188C7.47746 18.6086 7.4668 18.3176 7.4668 16C7.4668 13.6825 7.47711 13.3925 7.51835 12.4823C7.56013 11.5738 7.70395 10.9538 7.9148 10.4112C8.13294 9.84992 8.4245 9.37382 8.89899 8.89951C9.37313 8.42484 9.84922 8.13257 10.4101 7.91461C10.9531 7.70358 11.5733 7.55976 12.4816 7.51816C13.3918 7.47674 13.6825 7.4666 15.9999 7.4666C18.3176 7.4666 18.6075 7.47674 19.5178 7.51816C20.4262 7.55976 21.047 7.70358 21.59 7.91461C22.151 8.13257 22.6264 8.42484 23.1006 8.89951C23.5752 9.37382 23.8668 9.84992 24.0855 10.411C24.2952 10.9538 24.4392 11.574 24.4819 12.4821C24.5228 13.3924 24.5335 13.6825 24.5335 16C24.5335 18.3176 24.5228 18.6084 24.4819 19.5186C24.4392 20.4271 24.2952 21.0472 24.0855 21.5898C23.8668 22.151 23.5752 22.6271 23.1006 23.1014C22.6259 23.5761 22.1512 23.8677 21.5894 24.0854C21.0454 24.2965 20.425 24.4403 19.5165 24.4819C18.6063 24.5233 18.3165 24.5334 15.9983 24.5334H16.0009ZM15.2354 22.9957C15.4626 22.996 15.7161 22.9957 16.0009 22.9957C18.2793 22.9957 18.5494 22.9875 19.4491 22.9466C20.2811 22.9086 20.7327 22.7695 21.0335 22.6527C21.4317 22.4981 21.7156 22.3132 22.0141 22.0145C22.3128 21.7158 22.4977 21.4314 22.6527 21.0332C22.7695 20.7327 22.9087 20.2812 22.9466 19.4492C22.9875 18.5496 22.9963 18.2794 22.9963 16.002C22.9963 13.7246 22.9875 13.4544 22.9466 12.5549C22.9085 11.7228 22.7695 11.2713 22.6527 10.9708C22.498 10.5726 22.3128 10.2891 22.0141 9.99056C21.7154 9.69189 21.4319 9.507 21.0335 9.35233C20.733 9.235 20.2811 9.09633 19.4491 9.05829C18.5495 9.0174 18.2793 9.00851 16.0009 9.00851C13.7223 9.00851 13.4522 9.0174 12.5527 9.05829C11.7207 9.09669 11.2691 9.23571 10.9681 9.35251C10.5699 9.50718 10.2855 9.69207 9.98679 9.99074C9.68812 10.2894 9.50323 10.5731 9.3482 10.9716C9.2314 11.272 9.0922 11.7236 9.05433 12.5556C9.01344 13.4551 9.00527 13.7254 9.00527 16.0041C9.00527 18.2829 9.01344 18.5517 9.05433 19.4513C9.09238 20.2833 9.2314 20.7349 9.3482 21.0357C9.50287 21.4339 9.68812 21.7183 9.98679 22.017C10.2855 22.3157 10.5699 22.5006 10.9681 22.6556C11.2689 22.7729 11.7207 22.9116 12.5527 22.9498C13.3399 22.9854 13.645 22.996 15.2354 22.9978V22.9957ZM20.556 21.5788C19.9906 21.5788 19.532 21.1206 19.532 20.5551C19.532 19.9898 19.9906 19.5311 20.556 19.5311C21.1213 19.5311 21.58 19.9898 21.58 20.5551C21.58 21.1205 21.1213 21.5788 20.556 21.5788ZM16.0009 20.3823C13.5808 20.3823 11.6187 18.4202 11.6187 16C11.6187 13.5799 13.5808 11.6187 16.0009 11.6187C18.4211 11.6187 20.3825 13.5799 20.3825 16C20.3825 18.4202 18.4211 20.3823 16.0009 20.3823ZM16.0009 18.8445C17.5718 18.8445 18.8454 17.5711 18.8454 16C18.8454 14.4292 17.5718 13.1556 16.0009 13.1556C14.4299 13.1556 13.1564 14.4292 13.1564 16C13.1564 17.5711 14.4299 18.8445 16.0009 18.8445Z" fill="#2D2D2D"/>
</svg>
